<svg width="159" height="149" viewBox="0 0 159 149" fill="none" xmlns="http://www.w3.org/2000/svg">
<path d="M118.233 17.438C143.644 30.628 155.34 64.266 155.34 88.381C155.34 111.079 145.347 131.462 129.511 145.37L29.859 145.341C12.821 131.462 3.73001 112.073 3.73001 88.381C3.73001 64.266 12.473 32.028 38.16 17.438" stroke="#115E8E" stroke-width="6.25" stroke-miterlimit="2" stroke-linecap="round" stroke-linejoin="round"/>
<path d="M68.974 16.825H25.25C22.182 16.132 19.92 13.395 19.92 10.113C19.92 8.21599 20.706 6.50099 21.94 5.23599C23.205 3.99999 24.951 3.21899 26.848 3.21899H131.98C135.804 3.21899 138.906 6.31799 138.906 10.113C138.906 12.039 138.122 13.754 136.889 15.018C135.986 15.893 134.841 16.554 133.576 16.825H107.015" stroke="#115E8E" stroke-width="6.25" stroke-miterlimit="2" stroke-linejoin="round"/>
<path fill-rule="evenodd" clip-rule="evenodd" d="M125.456 88.366C125.456 88.366 125.422 67.114 103.189 62.667C80.956 58.222 49.773 78.167 49.773 78.167L37.118 60.491L33.615 108.179L50.617 91.89C50.617 91.89 70.437 105.303 92.204 105.303C123.33 105.303 125.456 88.366 125.456 88.366Z" stroke="#115E8E" stroke-width="6.25" stroke-miterlimit="2" stroke-linejoin="round"/>
<path d="M103.189 62.667C103.189 62.667 100.79 49.428 91.686 47.859C82.585 46.289 56.535 55.263 56.535 55.263L58.177 73.423" stroke="#115E8E" stroke-width="6.25" stroke-miterlimit="2" stroke-linecap="round" stroke-linejoin="round"/>
<path d="M64.852 99.2679C64.852 99.2679 58.416 105.477 54.965 109.243C51.512 113.009 75.272 115.19 83.322 104.593" stroke="#115E8E" stroke-width="6.25" stroke-miterlimit="2" stroke-linecap="round" stroke-linejoin="round"/>
<path fill-rule="evenodd" clip-rule="evenodd" d="M108.934 79.127C108.934 80.74 107.628 82.05 106.015 82.05C104.399 82.05 103.093 80.74 103.093 79.127C103.093 77.515 104.399 76.205 106.015 76.205C107.628 76.205 108.934 77.515 108.934 79.127Z" fill="#115E8E"/>
</svg>
