<svg width="81" height="142" viewBox="0 0 81 142" fill="none" xmlns="http://www.w3.org/2000/svg">
<path d="M61.888 27.858C56.946 27.858 52.927 23.8379 52.927 18.8969C52.927 13.9559 56.946 9.93595 61.888 9.93595C66.829 9.93595 70.849 13.9559 70.849 18.8969C70.849 23.8379 66.829 27.858 61.888 27.858ZM61.888 0.100952C51.524 0.100952 43.092 8.53295 43.092 18.8969C43.092 27.5599 48.984 34.872 56.971 37.039V108.782C56.971 121.158 46.902 131.226 34.526 131.226H32.733C20.357 131.226 10.289 121.158 10.289 108.782V103.564C10.289 103.564 18.95 100.153 17.886 96.0659C16.247 89.771 0.453995 65.799 0.453995 65.799V108.782C0.453995 126.58 14.934 141.06 32.733 141.06H34.526C52.325 141.06 66.805 126.58 66.805 108.782V37.039C74.792 34.872 80.684 27.5599 80.684 18.8969C80.684 8.53295 72.252 0.100952 61.888 0.100952Z" fill="#115E8E"/>
</svg>
