<svg width="151" height="125" viewBox="0 0 151 125" fill="none" xmlns="http://www.w3.org/2000/svg">
<path d="M148.415 106.377C147.874 105.687 147.258 104.918 146.701 104.292C141.862 98.7808 133.317 93.0706 125.542 93.015C125.445 92.5319 125.349 92.0517 125.253 91.5714C124.21 86.3415 123.223 81.4011 121.528 76.4566C119.512 70.6003 116.232 65.369 113.055 60.3019C111.828 58.3851 109.79 55.2572 108.418 53.1886C108.208 52.867 108.1 52.4049 108.165 52.1251C108.419 51.3399 108.713 51.2188 109.557 50.9028C110.553 50.6133 111.577 50.5103 112.662 50.4003C113.547 50.3098 114.461 50.218 115.369 50.0147L116.866 49.6806L116.196 48.2969C115.807 47.4951 115.526 46.6836 115.361 45.9012C114.815 43.1492 115.492 40.4528 116.208 37.5977C116.648 35.8465 117.102 34.0354 117.238 32.2286L117.241 32.1617C117.245 31.9237 117.26 29.812 116.355 28.8946C116.067 28.6023 115.698 28.4366 115.313 28.4269C112.72 28.303 110.059 28.6635 107.485 29.0129C104.741 29.3846 101.902 29.7688 99.1532 29.5656L99.1227 29.5642C96.4227 29.4333 94.3525 28.6427 92.9692 27.2172L92.9165 27.1671C86.9947 21.7548 80.282 15.6215 72.2956 11.9855C56.9916 4.63825 38.1702 4.31391 20.6379 11.1043C16.2534 12.8652 10.0305 15.6674 6.62287 19.664L6.17332 20.1916L6.3981 20.8486C7.83138 25.0373 11.1072 28.6162 13.9988 31.7748L14.5454 32.3719L14.5718 32.3998C19.1561 37.116 23.5919 40.8732 28.1498 43.8953C32.6619 46.7824 37.9746 49.9047 43.9394 50.4198L52.1603 51.3747L52.1908 51.3845C54.7993 52.5538 55.5347 55.6692 56.1285 58.1846C56.3242 58.9823 56.5101 59.9831 56.6891 60.9506C57.2038 63.7305 57.5577 65.4762 58.3069 66.2863C59.0659 67.1062 60.6337 67.3304 61.8159 67.3721C62.7885 67.4069 64.5367 67.3568 65.3179 66.6246C66.4501 65.5638 65.5649 63.9533 64.7088 62.3942C64.4091 61.8499 64.0997 61.2875 63.9221 60.849C63.8333 60.6165 63.7389 60.3813 63.6446 60.146C63.127 58.8556 62.64 57.6376 62.8065 56.304C62.8759 55.6539 63.3199 55.2363 63.578 55.0456C64.0761 54.6767 64.706 54.5222 65.2596 54.6307L65.3248 54.6419C70.9511 55.427 76.5413 57.412 81.786 59.3776C82.1509 59.5307 82.7642 59.7604 83.4122 60.004C83.9921 60.2212 84.5901 60.4453 84.8968 60.5748C85.0119 60.6277 85.1632 60.6847 85.3893 60.7696C85.4878 60.8058 85.585 60.842 85.6432 60.8657L85.696 60.888C85.696 60.888 85.7431 60.9061 85.7973 60.9269C85.9665 60.9966 86.2163 61.1413 86.2857 61.2221L86.3411 61.2875C86.5673 61.5339 86.6547 61.8123 86.6894 62.0127C86.7657 62.4304 86.6658 62.8744 86.559 63.2489C86.3342 64.0215 85.8861 64.9305 85.5253 65.6613L84.4264 67.8927L86.8559 67.3902C90.5619 66.6232 94.0084 68.0932 97.0984 71.7598L97.1761 71.8434C97.2746 71.9408 97.3634 72.0382 97.455 72.1399C97.5757 72.2735 97.7019 72.4127 97.849 72.5589C97.9045 72.6145 97.9642 72.6633 98.028 72.7078L98.8244 73.2939L99.5584 72.577L99.6264 72.506C99.9399 72.158 100.186 72.1051 100.365 72.0967C101.364 72.0508 102.909 73.4874 103.829 74.3449C104.073 74.5732 104.305 74.7875 104.52 74.9769C110.847 81.3997 115.502 87.9507 119.118 95.529C113.779 101.211 113.904 114.8 115.326 120.948C115.724 122.748 117.081 123.473 117.694 120.981C119.2 114.267 121.822 105.165 126.48 102.751C130.76 101.873 138.565 104.023 146.929 108.219C149.673 109.54 149.637 107.885 148.415 106.377Z" fill="white"/>
<path d="M120.58 95.9871C116.769 58.8125 81.17 29.2455 38.7863 21.8983C38.8182 22.1823 38.8362 22.4718 38.8362 22.7642C38.8362 27.0447 35.3772 30.5137 31.1121 30.5137C26.8469 30.5137 23.3879 27.0433 23.3879 22.7642C23.3879 21.8886 23.535 21.0478 23.8014 20.2627C18.0336 19.9996 12.1978 20.1541 6.35231 20.761L6.39393 20.8835C7.82721 25.0722 11.1031 28.6511 13.9946 31.8097L14.5413 32.4068L14.5676 32.4347C19.1519 37.1509 23.5877 40.9081 28.1456 43.9302C32.6577 46.8173 37.9704 49.9396 43.9353 50.4547L52.1562 51.4096L52.1867 51.4194C54.7952 52.5887 55.5305 55.7041 56.1244 58.2195C56.32 59.0172 56.5059 60.018 56.6849 60.9855C57.1997 63.7654 57.5535 65.511 58.3027 66.3212C59.0617 67.1411 60.6296 67.3653 61.8117 67.407C62.7843 67.4418 64.5326 67.3917 65.3137 66.6595C66.4459 65.5987 65.5607 63.9882 64.7046 62.4291C64.4049 61.8848 64.0955 61.3224 63.9179 60.8839C63.8291 60.6514 63.7348 60.4162 63.6404 60.1809C63.1229 58.8905 62.6359 57.6724 62.8024 56.3389C62.8717 55.6888 63.3157 55.2712 63.5738 55.0805C64.0719 54.7116 64.7018 54.5571 65.2555 54.6656L65.3207 54.6768C70.9469 55.4619 76.5371 57.4469 81.7819 59.4125C82.1468 59.5656 82.76 59.7953 83.408 60.0389C83.988 60.2561 84.586 60.4802 84.8926 60.6097C85.0078 60.6626 85.159 60.7196 85.3852 60.8045C85.4837 60.8407 85.5808 60.8769 85.6391 60.9006L85.6918 60.9229C85.6918 60.9229 85.739 60.941 85.7931 60.9618C85.9624 61.0314 86.2121 61.1762 86.2815 61.257L86.337 61.3224C86.5632 61.5688 86.6506 61.8472 86.6852 62.0476C86.7616 62.4653 86.6617 62.9093 86.5548 63.2838C86.3301 64.0564 85.8819 64.9654 85.5211 65.6962L84.4222 67.9276L86.8517 67.4251C90.5577 66.6581 94.0043 68.1281 97.0942 71.7947L97.1719 71.8783C97.2704 71.9757 97.3592 72.0731 97.4508 72.1748C97.5715 72.3084 97.6978 72.4476 97.8448 72.5938C97.9003 72.6494 97.96 72.6982 98.0238 72.7427L98.8202 73.3288L99.5542 72.6119L99.6222 72.5409C99.9358 72.1929 100.181 72.14 100.36 72.1316C101.359 72.0857 102.905 73.5223 103.825 74.3798C104.069 74.6081 104.301 74.8224 104.516 75.0117C110.843 81.4346 115.498 87.9856 119.114 95.5639C118.972 95.7142 118.836 95.8743 118.702 96.0358C119.319 96.0052 119.941 95.9871 120.58 95.9871ZM79.2525 43.6058C78.2909 50.0705 60.8904 44.8211 55.5527 42.2054C56.0425 40.7619 56.4602 39.2696 56.8112 37.7523C63.0022 36.8224 80.1835 37.3514 79.2525 43.6058Z" fill="#9CBFE2"/>
<path d="M25.3526 17.0011C22.203 20.1611 22.203 25.3033 25.3526 28.4632C26.8789 29.9945 28.9074 30.838 31.0649 30.838C33.2225 30.838 35.251 29.9945 36.7772 28.4632C38.3035 26.932 39.1443 24.8968 39.1443 22.7322C39.1443 20.5675 38.3035 18.5324 36.7772 17.0011C33.6276 13.8398 28.5022 13.8398 25.3526 17.0011ZM36.1195 27.8034C34.7695 29.1578 32.9741 29.904 31.0649 29.904C29.1557 29.904 27.3603 29.1578 26.0103 27.8034C23.2228 25.0068 23.2228 20.4576 26.0103 17.661C27.4047 16.2633 29.2348 15.5631 31.0649 15.5631C32.895 15.5631 34.7265 16.262 36.1195 17.661C37.4696 19.0154 38.2133 20.8167 38.2133 22.7322C38.2133 24.649 37.4696 26.4489 36.1195 27.8034Z" fill="#00788E"/>
<path d="M32.5703 17.562C32.8464 18.2928 32.6952 19.1503 32.1083 19.7392C31.3105 20.5396 30.016 20.5396 29.2182 19.7392C28.7645 19.284 28.5771 18.6673 28.641 18.0729C28.2525 18.297 27.8778 18.5559 27.5462 18.8886C25.5163 20.9252 25.5163 24.2271 27.5462 26.2637C29.5761 28.3002 32.8673 28.3002 34.8972 26.2637C36.9271 24.2271 36.9271 20.9252 34.8972 18.8886C34.2298 18.2191 33.4209 17.7917 32.5703 17.562Z" fill="#00788E"/>
<path d="M149.823 106.675C144.971 99.4616 137.68 93.6832 129.156 91.4921C127.838 91.2054 126.627 90.9256 125.337 90.8518C124.708 85.9782 124.089 81.1868 122.685 76.2743C120.296 67.9888 115.682 60.7182 111.431 53.4155C114.083 53.1302 116.958 53.6452 119.1 51.4778C120.009 50.4324 119.906 48.7424 119.175 47.6037L119.13 47.5007L118.961 47.1165C118.147 45.4335 118.313 43.7158 118.684 41.7683C119.735 36.9296 122.954 30.6751 118.833 26.2039C117.342 24.4568 114.713 24.5306 112.77 24.5905C108.066 24.8271 103.9 25.7222 99.4654 25.402C98.1931 25.3088 96.9985 24.9677 96.5697 24.6127L90.1554 18.5685C76.2819 5.1631 56.1771 -1.03845 37.1435 1.44495C27.6184 2.60592 18.2903 5.37191 9.88348 10.1243C6.25797 12.4073 0.669151 15.5422 0.538727 20.4993C1.68618 30.4412 17.2538 43.2216 25.4928 48.2594C29.0433 50.3962 32.9255 52.3409 36.9964 53.4907C39.4315 54.3969 42.0275 54.951 44.6304 55.2489C46.566 55.5133 48.5501 55.473 50.5009 55.3992C50.6174 55.3867 50.6577 55.4159 50.9435 55.8307C52.9318 59.5767 52.3518 65.1435 55.0033 68.8436C57.9295 72.4796 65.8174 72.4698 68.8865 68.8784C69.7607 67.9763 69.8453 66.001 69.5858 65.188C69.0683 62.8494 67.8917 60.849 67.0634 58.7735C72.1041 59.6769 77.8553 61.5284 82.8336 63.3088C82.9654 63.3575 83.1333 63.416 83.3137 63.48C82.7503 64.918 81.9567 66.1555 81.5765 68.0042C81.1395 70.1312 83.0209 71.8058 85.1521 71.0193C91.042 68.3146 92.5724 71.1683 96.9014 74.6929C98.0599 75.5226 99.6306 75.3611 100.678 74.4744C104.097 76.5012 106.759 79.7767 109.489 82.6958C112.636 86.3137 115.441 89.9038 117.911 93.9031C111.881 100.12 112.874 111.869 114.092 119.659C114.406 121.197 114.914 124.939 117.295 123.874C117.901 123.501 118.083 122.634 118.142 122.18C119.262 113.683 124.234 104.62 126.558 103.319C130.713 102.574 142.007 106.646 148.025 109.966C148.898 110.485 150.71 110.759 150.957 109.209C151.138 108.372 150.255 107.464 149.823 106.675ZM126.073 101.749C120.719 104.373 118.154 113.646 116.512 120.866C115.109 113.798 114.983 100.915 120.58 95.9508C116.742 87.6723 111.759 80.7483 105.347 74.2447C103.783 72.8916 100.852 69.4909 98.7273 71.8476C98.7273 71.8476 98.7162 71.8587 98.712 71.8629C98.7079 71.8601 98.7065 71.8601 98.7037 71.8573C98.4373 71.5928 98.2555 71.3618 98.0224 71.1335C94.9519 67.4905 91.1641 65.4163 86.6103 66.3588C87.0377 65.4901 87.4734 64.5936 87.7203 63.7487C87.8646 63.2461 88.002 62.6183 87.8799 61.9515C87.8188 61.6007 87.6537 61.0843 87.2319 60.6235C86.8684 60.1669 86.0595 59.883 86.1705 59.9303C86.0304 59.8663 85.5225 59.6895 85.3866 59.624C84.7344 59.347 82.903 58.6942 82.2328 58.4088C76.8396 56.3862 71.255 54.4039 65.4913 53.5979C63.7417 53.2541 61.7965 54.5069 61.6008 56.3333C61.3636 58.2306 62.1836 59.8593 62.7913 61.4448C63.4434 63.0554 65.1486 65.2799 64.4896 65.8952C63.8319 66.5119 60.0066 66.498 59.1935 65.6182C58.3804 64.7384 57.9281 60.5999 57.3038 58.0524C56.6863 55.434 55.8275 51.8258 52.6598 50.4226C52.5807 50.3878 52.5016 50.3697 52.4212 50.3405C54.0945 48.4807 55.4015 46.1296 56.4144 43.5334C63.0119 46.6418 70.5543 49.3633 77.9177 47.6163C81.3032 46.6655 82.9779 43.2856 80.5206 40.4459C75.0525 35.1032 65.6093 35.3357 58.3902 36.5746C59.4669 31.1206 59.6653 25.5106 59.4627 21.4584C59.4627 21.4584 58.2223 21.4277 58.2237 21.4277C57.3384 29.297 53.656 49.1253 44.0574 49.3703C38.4658 48.8928 33.4847 46.0293 28.7978 43.0309C23.9526 39.818 19.5002 35.8953 15.4362 31.7122C12.3976 28.3824 8.97745 24.8132 7.54139 20.6148C10.6202 17.0038 16.32 14.3074 21.0861 12.3934C37.2573 6.13057 56.0189 5.67538 71.7822 13.2481C79.4412 16.731 85.9138 22.5734 92.0993 28.2265C93.9654 30.1503 96.6239 30.8213 99.0631 30.9396C104.566 31.3461 110.06 29.5503 115.275 29.8037C115.723 29.7995 116.052 31.1178 116.028 32.2996C115.691 36.8182 113.211 41.4523 114.171 46.2994C114.367 47.2279 114.69 48.1299 115.105 48.9888C113.19 49.4162 111.158 49.3229 109.175 49.909C108.216 50.2681 107.442 50.5535 107.001 51.9469C106.811 52.6443 107.048 53.4712 107.403 54.0141C108.702 55.9727 110.742 59.0965 112.035 61.1191C115.255 66.2557 118.444 71.3812 120.383 77.0149C122.316 82.6526 123.343 88.4366 124.557 94.4182C132.21 93.9505 141.015 99.8165 145.792 105.258C146.346 105.882 146.913 106.575 147.456 107.281C141.445 104.363 132.167 100.396 126.073 101.749ZM56.9333 42.108C57.3662 40.8328 57.7353 39.5132 58.0461 38.1726C64.6699 38.5555 71.803 38.6251 77.2378 42.4977C77.4529 42.7093 77.6943 42.9585 77.8136 43.2007C77.89 43.3859 77.8636 43.4053 77.8761 43.3455C78.0093 43.2731 77.5015 43.7895 76.7383 44.0248C74.0064 44.835 70.9927 44.5691 68.0721 44.2684C64.3841 43.8035 60.674 42.9849 56.9333 42.108Z" fill="#00788E"/>
</svg>
