<svg width="1000" height="360" viewBox="0 0 1000 360" fill="none" xmlns="http://www.w3.org/2000/svg">
<path fill-rule="evenodd" clip-rule="evenodd" d="M1020.66 0.350963V0H-20V341.164C-13.1868 347.078 25.3899 375.909 95.0889 340.2H95.1873C96.7068 341.322 141.282 373.664 188.831 340.2H188.91C190.474 341.44 240.67 380.615 293.534 340.2H293.616C295.36 341.414 350.572 379.29 398.184 340.2H398.278C399.963 341.636 447.988 381.827 495.645 340.2H495.722C497.553 341.453 557.333 381.832 604.793 340.2H604.865C606.513 341.462 660.724 382.383 711.757 340.2H711.821C713.047 341.49 754.103 383.871 816.904 340.2H816.983C818.521 341.431 867.857 380.32 917.958 340.2H918.03C919.479 341.408 965.435 379.057 1020.66 341.064V2.22935C965.197 39.1759 919.448 0.350963 919.448 0.350963C868.53 41.1568 818.399 0.350963 818.399 0.350963C754.609 44.7388 713.246 0.350963 713.246 0.350963C661.405 43.2368 606.28 0.350963 606.28 0.350963C558.068 42.6813 497.132 0.350963 497.132 0.350963C448.868 42.5412 400.223 0.805534 399.69 0.345079H399.68L399.685 0.341296L399.69 0.345079L1020.66 0.350963H1020.66ZM399.684 0.345079L-19.6384 0.341296C-19.6384 0.341296 19.4024 39.9371 96.6034 0.350963C96.6034 0.350963 141.933 34.4516 190.329 0.350963C190.329 0.350963 241.304 41.457 295.03 0.350963C295.03 0.350963 351.292 40.1264 399.684 0.345079Z" fill="#CDDFF1" fill-opacity="0.3"/>
</svg>
